<svg width="42" height="28" viewBox="0 0 42 28" fill="none" xmlns="http://www.w3.org/2000/svg">
<rect x="1.20703" y="0.375" width="40.25" height="27.25" rx="4.125" fill="white" stroke="#DDDDDD" stroke-width="0.75"/>
<path d="M9.56152 15.094C10.6895 15.0941 11.5547 15.5977 11.5547 16.8372V19.8381H10.3184V19.1213C10.0373 19.606 9.4462 19.9738 8.7832 19.9739C7.85345 19.9739 7.25797 19.4701 7.25781 18.6379C7.25781 17.5878 8.33094 17.212 9.69824 17.0344C10.0647 16.9873 10.2588 16.8668 10.2588 16.6272C10.2588 16.2728 9.96649 16.096 9.4375 16.0959C8.88033 16.0959 8.26291 16.3942 7.88086 16.7424L7.44531 15.8303C7.92147 15.4523 8.7993 15.094 9.56152 15.094ZM18.043 12.926C18.7949 12.9261 19.209 13.1956 19.209 13.1956L18.8008 14.1243C18.8008 14.1243 18.5408 13.9778 18.208 13.9778C17.9065 13.9779 17.5568 14.152 17.5566 14.761V15.2297H18.7559V16.2463H17.5566V19.8391H16.2344V16.2463H14.2275V19.8391H12.9043V16.2463H12.1367V15.2297H12.9043V14.8909C12.9044 13.4008 13.8672 12.926 14.7129 12.926C15.2437 12.9261 15.6353 13.0528 15.8789 13.1956L15.4707 14.1243C15.2801 14.0169 15.0493 13.9778 14.8779 13.9778C14.577 13.9778 14.2277 14.1518 14.2275 14.761V15.2297H16.2344V14.8909C16.2345 13.4008 17.1973 12.926 18.043 12.926ZM20.8682 15.2307V19.8391H19.5469V15.2307H20.8682ZM24.6025 15.094C24.7777 15.094 24.9919 15.1135 25.1963 15.2004L24.9551 16.4182C24.7993 16.3022 24.5631 16.2522 24.3887 16.2522C23.9413 16.2524 23.3009 16.5623 23.3008 17.6174V19.8381H21.9766V15.2297H23.2129V16.0042C23.4952 15.3947 23.9222 15.0941 24.6025 15.094ZM31.332 15.094C32.1777 15.0941 32.8779 15.6167 32.8779 16.6526V19.8381H31.5547V17.0686C31.5545 16.4588 31.1855 16.2053 30.8359 16.2053C30.3986 16.2056 29.9609 16.6048 29.9609 17.4661V19.8381H28.6387V17.0784C28.6387 16.4498 28.2912 16.2055 27.9131 16.2053C27.4949 16.2053 27.0469 16.6138 27.0469 17.4661V19.8381H25.7227V15.2297H26.998V15.926C27.2218 15.481 27.7065 15.094 28.4062 15.094C29.0476 15.094 29.5839 15.3902 29.8369 15.9036C30.1093 15.5063 30.6321 15.094 31.332 15.094ZM10.2314 17.7493C9.16488 17.8616 8.58023 18.0399 8.58008 18.5598C8.58008 18.841 8.75379 19.011 9.10156 19.011C9.7596 19.0109 10.2314 18.445 10.2314 17.7493Z" fill="#151515"/>
<path fill-rule="evenodd" clip-rule="evenodd" d="M27.2618 8.80078C23.6894 8.80078 20.5053 11.2706 19.6016 14.4461H20.8967C21.6514 12.0812 24.2135 10.0056 27.2618 10.0056C30.967 10.0056 34.1692 12.8149 34.1692 17.1884C34.1692 18.1703 34.0414 19.0555 33.7996 19.8376H35.056L35.0685 19.7947C35.2742 18.9878 35.3789 18.1114 35.3789 17.1884C35.3789 12.3109 31.8102 8.80078 27.2618 8.80078Z" fill="#4A4AF4"/>
</svg>
