<svg width="41" height="28" viewBox="0 0 41 28" fill="none" xmlns="http://www.w3.org/2000/svg">
<rect width="41" height="28" rx="4.5" fill="#C2FAE5"/>
<path d="M8.78159 14.2526C8.78159 13.7469 8.4029 13.3917 7.93761 13.3917C7.47233 13.3917 7.09364 13.7531 7.09364 14.2526C7.09364 14.7462 7.47233 15.1132 7.93761 15.1132C8.40347 15.1132 8.78159 14.7583 8.78159 14.2526ZM8.78838 15.7573V15.3661C8.55885 15.6369 8.21696 15.8051 7.80799 15.8051C6.95779 15.8051 6.3125 15.143 6.3125 14.2526C6.3125 13.3678 6.98241 12.6939 7.82695 12.6939C8.22432 12.6939 8.55913 12.8626 8.78866 13.127V12.7479H9.55197V15.7573H8.78838ZM13.259 15.089C12.9918 15.089 12.9177 14.9929 12.9177 14.7403V13.4041H13.4082V12.7476H12.9177V12.0135H12.1354V12.7476H11.1278V12.5648C11.1278 12.3117 11.2275 12.2152 11.5006 12.2152H11.6721V11.6316H11.2957C10.6504 11.6316 10.3464 11.8363 10.3464 12.4621V12.7473H9.91198V13.4041H10.3464V15.757H11.1287V13.4041H12.1362V14.8787C12.1362 15.4926 12.378 15.7576 13.0108 15.7576H13.4144V15.0893H13.2587L13.259 15.089ZM16.064 13.9815C16.0083 13.5905 15.6791 13.3557 15.2945 13.3557C14.9096 13.3557 14.5932 13.5843 14.5128 13.9815H16.0637H16.064ZM14.5063 14.4512C14.5623 14.8964 14.8912 15.1495 15.3069 15.1495C15.6358 15.1495 15.8905 14.9988 16.0391 14.758H16.8401C16.6536 15.3959 16.064 15.8051 15.2883 15.8051C14.3515 15.8051 13.6937 15.1675 13.6937 14.2585C13.6937 13.3498 14.3888 12.6936 15.3075 12.6936C16.2321 12.6936 16.9021 13.3557 16.9021 14.2585C16.9021 14.3249 16.8961 14.3907 16.8837 14.4512H14.5063ZM21.875 14.2526C21.875 13.7649 21.4964 13.3917 21.0311 13.3917C20.5658 13.3917 20.1871 13.7531 20.1871 14.2526C20.1871 14.7462 20.5658 15.1132 21.0311 15.1132C21.4964 15.1132 21.875 14.7403 21.875 14.2526ZM19.4173 12.7479H20.1806V13.1391C20.4098 12.8621 20.7512 12.6939 21.161 12.6939C21.9987 12.6939 22.6562 13.3621 22.6562 14.2464C22.6562 15.1315 21.9863 15.8057 21.1423 15.8057C20.7512 15.8057 20.4285 15.6549 20.2055 15.4024V16.9957H19.4173V12.7479ZM25.4072 14.2526C25.4072 13.7469 25.029 13.3917 24.5632 13.3917C24.0979 13.3917 23.7192 13.7531 23.7192 14.2526C23.7192 14.7462 24.0979 15.1132 24.5632 15.1132C25.029 15.1132 25.4072 14.7583 25.4072 14.2526ZM25.414 15.7573V15.3661C25.1844 15.6369 24.8425 15.8051 24.4336 15.8051C23.5834 15.8051 22.9381 15.143 22.9381 14.2526C22.9381 13.3678 23.608 12.6939 24.4522 12.6939C24.8493 12.6939 25.1844 12.8626 25.414 13.127V12.7479H26.177V15.7573H25.414ZM18.0418 13.0429C18.0418 13.0429 18.2359 12.6942 18.7117 12.6942C18.9152 12.6942 19.0468 12.7617 19.0468 12.7617V13.5295C19.0468 13.5295 18.7598 13.3576 18.496 13.3922C18.2323 13.4268 18.0656 13.6617 18.0664 13.9761V15.7579H17.2785V12.7485H18.0418V13.0429ZM29.7414 12.7479L27.8146 16.9861H27.002L27.7585 15.3475L26.4793 12.7479H27.4002L28.1485 14.4849L28.9164 12.7479H29.7414ZM35.8923 12.6795L33.9819 11.6105C33.4215 11.2966 32.7205 11.6887 32.7205 12.317V12.4267C32.7205 12.5257 32.7751 12.6174 32.8634 12.6666L33.2242 12.8685C33.3301 12.9282 33.462 12.8539 33.462 12.7355V12.4627C33.462 12.3263 33.6142 12.2408 33.7359 12.3091L35.3905 13.2356C35.5122 13.3036 35.5122 13.4741 35.3905 13.5421L33.7359 14.4683C33.6142 14.5364 33.4623 14.4514 33.4623 14.3147V14.1696C33.4623 13.5416 32.7612 13.1487 32.2 13.4631L30.2896 14.5324C30.1622 14.602 30.056 14.7042 29.982 14.8285C29.908 14.9528 29.869 15.0945 29.869 15.2389C29.869 15.3834 29.908 15.5251 29.982 15.6494C30.056 15.7737 30.1622 15.8759 30.2896 15.9455L32.2 17.0145C32.7607 17.3284 33.4623 16.9363 33.4623 16.308V16.1983C33.4619 16.1493 33.4485 16.1012 33.4233 16.0591C33.3982 16.0169 33.3622 15.9822 33.3191 15.9584L32.9585 15.7559C32.8526 15.6965 32.7205 15.7708 32.7205 15.8892V16.162C32.7205 16.2984 32.5682 16.3836 32.4468 16.3153L30.7919 15.3891C30.7643 15.374 30.7413 15.3518 30.7253 15.3248C30.7092 15.2978 30.7008 15.267 30.7008 15.2357C30.7008 15.2044 30.7092 15.1736 30.7253 15.1466C30.7413 15.1196 30.7643 15.0974 30.7919 15.0823L32.4468 14.1558C32.5685 14.0875 32.7205 14.1727 32.7205 14.3094V14.4545C32.7205 15.0826 33.4212 15.4755 33.9819 15.161L35.8923 14.0917C36.0195 14.0222 36.1257 13.9201 36.1996 13.7959C36.2735 13.6717 36.3125 13.5301 36.3125 13.3858C36.3125 13.2415 36.2735 13.0999 36.1996 12.9757C36.1257 12.8515 36.0195 12.7493 35.8923 12.6798V12.6795Z" fill="#151515"/>
</svg>
