<svg width="41" height="28" viewBox="0 0 41 28" fill="none" xmlns="http://www.w3.org/2000/svg">
<rect x="0.375" y="0.375" width="40.25" height="27.25" rx="4.125" fill="white" stroke="#DDDDDD" stroke-width="0.75"/>
<path d="M32.1484 16.6514H32.1768L33.8115 11.3262H35.2227L32.7852 18.2188C32.2288 19.7973 31.5919 20.3174 30.2383 20.3174C30.1352 20.3174 29.7918 20.3063 29.7109 20.2832V19.2021C29.7972 19.2137 30.0093 19.2246 30.1182 19.2246C30.7317 19.2245 31.0759 18.9645 31.2881 18.2881L31.4141 17.8887L29.0625 11.3262H30.5137L32.1484 16.6514ZM11.7236 10.5303C12.0334 10.5534 12.9284 10.6462 13.502 11.502C13.4561 11.5366 12.4409 12.1261 12.4521 13.3633C12.4636 14.836 13.7238 15.3303 13.748 15.3467C13.7366 15.3814 13.5476 16.0472 13.083 16.7295C12.6759 17.3307 12.2569 17.92 11.5918 17.9316C10.9494 17.9432 10.737 17.5439 9.99707 17.5439C9.26296 17.544 9.02202 17.9202 8.41406 17.9434C7.77173 17.9665 7.28416 17.3074 6.87695 16.7061C6.04534 15.4918 5.40844 13.2829 6.26855 11.791C6.68722 11.0452 7.45039 10.5771 8.27051 10.5654C8.90143 10.5539 9.48095 10.9873 9.86523 10.9873C10.2438 10.9873 10.9264 10.484 11.7236 10.5303ZM25.8994 11.2422C27.4882 11.2422 28.5205 12.0808 28.5205 13.3818V17.8691H27.2363V16.7871H27.207C26.84 17.4924 26.0318 17.9383 25.1602 17.9385C23.8696 17.9385 22.9688 17.1632 22.9688 15.9951C22.9688 14.8388 23.8406 14.1735 25.4521 14.0752L27.1846 13.9717V13.4746C27.1846 12.7403 26.7082 12.3408 25.8594 12.3408C25.1599 12.3409 24.6493 12.7049 24.5459 13.2598H23.2959C23.3363 12.092 24.4257 11.2423 25.8994 11.2422ZM19.6836 8.85156C21.4157 8.85162 22.626 10.0547 22.626 11.8125C22.6258 13.5701 21.3926 14.7841 19.6377 14.7842H17.7158V17.8662H16.3281V8.85156H19.6836ZM25.6475 15.0107C24.7814 15.0628 24.3281 15.3923 24.3281 15.959C24.3283 16.5081 24.7985 16.8661 25.5381 16.8662C26.4787 16.8662 27.1904 16.2651 27.1904 15.4209V14.9121L25.6475 15.0107ZM17.7188 13.6123H19.3135C20.5234 13.6122 21.2118 12.9591 21.2119 11.8203C21.2119 10.6813 20.5236 10.0333 19.3193 10.0332H17.7188V13.6123ZM11.7266 8.16406C11.7839 8.7423 11.5601 9.30933 11.2217 9.73145C10.8775 10.1419 10.3269 10.4652 9.77637 10.4189C9.70765 9.86391 9.97756 9.27439 10.293 8.91016C10.6371 8.48807 11.2391 8.18719 11.7266 8.16406Z" fill="#151515"/>
</svg>
