<svg width="41" height="28" viewBox="0 0 41 28" fill="none" xmlns="http://www.w3.org/2000/svg">
<rect x="0.375" y="0.375" width="40.25" height="27.25" rx="4.125" fill="white" stroke="#DDDDDD" stroke-width="0.75"/>
<path d="M32.2021 16.707H32.2236L33.9326 12.4336H35.1348L31.4404 21.002H30.3008L31.6738 18.0049L29.25 12.4336H30.4512L32.2021 16.707ZM26.4238 12.2402C27.2408 12.2403 27.8866 12.4624 28.3604 12.8994C28.834 13.3364 29.0673 13.9469 29.0674 14.7168V18.3867H28.0107V17.5615H27.9619C27.5019 18.2413 26.8978 18.581 26.1357 18.5811C25.4905 18.581 24.9413 18.3873 24.5088 17.999C24.0831 17.6383 23.8428 17.1039 23.8564 16.542C23.8565 15.9246 24.0898 15.439 24.5498 15.0713C25.0098 14.7037 25.6276 14.5225 26.3965 14.5225C27.0556 14.5225 27.5919 14.6479 28.0176 14.8838V14.627C28.0176 14.2455 27.8526 13.8845 27.5645 13.6348C27.2693 13.3712 26.8912 13.2257 26.5 13.2256C25.8821 13.2256 25.3942 13.4894 25.0371 14.0166L24.0625 13.3984C24.5843 12.6288 25.3737 12.2403 26.4238 12.2402ZM21.1895 9.68945C21.8967 9.67558 22.5837 9.94578 23.085 10.4453C24.0874 11.3889 24.1487 12.9772 23.208 13.9971C23.1669 14.0386 23.1261 14.0805 23.085 14.1221C22.57 14.6146 21.9379 14.8643 21.1895 14.8643H19.3633V18.3887H18.2578V9.68945H21.1895ZM26.5654 15.4238C26.1191 15.4238 25.7406 15.535 25.4385 15.75C25.1433 15.965 24.9923 16.2357 24.9922 16.5615C24.9922 16.8529 25.1299 17.1235 25.3564 17.29C25.6037 17.4843 25.9058 17.589 26.2148 17.582C26.6817 17.582 27.1284 17.3945 27.458 17.0615C27.8219 16.7147 28.0068 16.3047 28.0068 15.833C27.6636 15.5558 27.183 15.417 26.5654 15.4238ZM19.3594 13.7959H21.2139C21.6258 13.8097 22.0242 13.643 22.3057 13.3447C22.8823 12.7413 22.8685 11.7703 22.2715 11.1875C21.99 10.91 21.6121 10.7569 21.2139 10.7568H19.3594V13.7959Z" fill="#3C4043"/>
<path d="M15.5494 14.095C15.5494 13.755 15.5219 13.415 15.467 13.082H10.8047V15.0038H13.4757C13.3659 15.6213 13.0088 16.1763 12.487 16.5232V17.772H14.08C15.0138 16.9048 15.5494 15.6213 15.5494 14.095Z" fill="#4285F4"/>
<path d="M10.8096 18.9793C12.1417 18.9793 13.2678 18.5352 14.0849 17.7721L12.4919 16.5232C12.0456 16.8285 11.4757 17.002 10.8096 17.002C9.51874 17.002 8.42698 16.1208 8.0356 14.9414H6.39453V16.2319C7.23223 17.9178 8.94196 18.9793 10.8096 18.9793Z" fill="#34A853"/>
<path d="M8.03122 14.9406C7.82519 14.3231 7.82519 13.6501 8.03122 13.0257V11.7422H6.38989C5.68254 13.1506 5.68254 14.8157 6.38989 16.2241L8.03122 14.9406Z" fill="#FBBC04"/>
<path d="M10.8096 10.9659C11.5169 10.952 12.1966 11.2226 12.7048 11.7152L14.1192 10.286C13.2197 9.43955 12.0387 8.97471 10.8096 8.98858C8.94196 8.98858 7.23223 10.057 6.39453 11.7429L8.0356 13.0334C8.42698 11.847 9.51874 10.9659 10.8096 10.9659Z" fill="#EA4335"/>
</svg>
