<svg width="41" height="28" viewBox="0 0 41 28" fill="none" xmlns="http://www.w3.org/2000/svg">
<rect x="0.375" y="0.375" width="40.25" height="27.25" rx="4.125" fill="white" stroke="#DDDDDD" stroke-width="0.75"/>
<path d="M25.9814 5.83789C30.3962 5.83789 33.9756 9.44379 33.9756 13.8916C33.9755 18.3393 30.3961 21.9453 25.9814 21.9453C24.0008 21.9452 22.1903 21.2167 20.7939 20.0146C19.3975 21.2165 17.587 21.9453 15.6064 21.9453C11.192 21.9451 7.6134 18.3392 7.61328 13.8916C7.61328 9.44392 11.1919 5.83811 15.6064 5.83789C17.5867 5.83789 19.3976 6.56509 20.7939 7.7666C22.1902 6.56494 24.0012 5.83799 25.9814 5.83789Z" fill="#ED0006"/>
<path d="M25.9814 5.83789C30.3962 5.83789 33.9756 9.44379 33.9756 13.8916C33.9755 18.3393 30.3961 21.9453 25.9814 21.9453C24.0008 21.9452 22.1903 21.2167 20.7939 20.0146C22.5101 18.5376 23.6005 16.3439 23.6006 13.8916C23.6006 11.4389 22.5106 9.24373 20.7939 7.7666C22.1902 6.56494 24.0012 5.83799 25.9814 5.83789Z" fill="#F9A000"/>
<path d="M20.7979 7.76172C22.5166 9.23888 23.6084 11.4351 23.6084 13.8896C23.6083 16.3439 22.5164 18.5395 20.7979 20.0166C19.0795 18.5395 17.9883 16.3437 17.9883 13.8896C17.9883 11.4354 19.0793 9.23887 20.7979 7.76172Z" fill="#FF5E00"/>
</svg>
