<svg width="41" height="28" viewBox="0 0 41 28" fill="none" xmlns="http://www.w3.org/2000/svg">
<rect x="0.375" y="0.375" width="40.25" height="27.25" rx="4.125" fill="white" stroke="#DDDDDD" stroke-width="0.75"/>
<path fill-rule="evenodd" clip-rule="evenodd" d="M11.5966 17.7773H9.7743C9.6496 17.7773 9.54354 17.8676 9.5241 17.9902L8.78707 22.6441C8.77242 22.7359 8.84383 22.8187 8.93736 22.8187H9.80734C9.93204 22.8187 10.0381 22.7284 10.0575 22.6056L10.2563 21.3504C10.2755 21.2275 10.3818 21.1374 10.5063 21.1374H11.0831C12.2835 21.1374 12.9763 20.5588 13.1573 19.4124C13.2388 18.9109 13.1608 18.5168 12.9249 18.2407C12.6659 17.9377 12.2065 17.7773 11.5966 17.7773ZM11.8068 19.4771C11.7072 20.1284 11.2076 20.1284 10.7245 20.1284H10.4495L10.6424 18.9121C10.6539 18.8386 10.7178 18.7845 10.7924 18.7845H10.9185C11.2475 18.7845 11.558 18.7845 11.7184 18.9713C11.814 19.0828 11.8433 19.2483 11.8068 19.4771ZM17.0439 19.4562H16.1712C16.0969 19.4562 16.0326 19.5104 16.0212 19.584L15.9826 19.827L15.9215 19.7389C15.7326 19.4658 15.3114 19.3746 14.8909 19.3746C13.9265 19.3746 13.1029 20.102 12.9425 21.1224C12.8591 21.6313 12.9776 22.118 13.2675 22.4574C13.5335 22.7695 13.9141 22.8995 14.3667 22.8995C15.1437 22.8995 15.5747 22.4019 15.5747 22.4019L15.5357 22.6435C15.521 22.7358 15.5924 22.8186 15.6854 22.8186H16.4715C16.5965 22.8186 16.7019 22.7283 16.7217 22.6055L17.1933 19.6309C17.2082 19.5394 17.1371 19.4562 17.0439 19.4562ZM15.8274 21.1478C15.7432 21.6443 15.3475 21.9776 14.8429 21.9776C14.5895 21.9776 14.3869 21.8967 14.257 21.7433C14.128 21.591 14.0789 21.3741 14.12 21.1327C14.1987 20.6404 14.601 20.2962 15.0979 20.2962C15.3457 20.2962 15.5472 20.3782 15.6798 20.5329C15.8128 20.6892 15.8655 20.9073 15.8274 21.1478ZM20.8145 19.4561H21.6915C21.8143 19.4561 21.886 19.5933 21.8162 19.6936L18.8995 23.8865C18.8523 23.9544 18.7745 23.9948 18.6914 23.9948H17.8155C17.6922 23.9948 17.6202 23.8566 17.6916 23.756L18.5998 22.4793L17.6339 19.6562C17.6005 19.558 17.6732 19.4561 17.7781 19.4561H18.6397C18.7517 19.4561 18.8505 19.5293 18.8828 19.636L19.3954 21.3411L20.6049 19.5668C20.6523 19.4975 20.7309 19.4561 20.8145 19.4561Z" fill="#253B80"/>
<path fill-rule="evenodd" clip-rule="evenodd" d="M30.3281 22.6443L31.076 17.9053C31.0875 17.8317 31.1515 17.7776 31.2258 17.7773H32.0678C32.1607 17.7773 32.2321 17.8604 32.2175 17.9522L31.48 22.6059C31.4607 22.7287 31.3547 22.819 31.2298 22.819H30.4778C30.3849 22.819 30.3135 22.7362 30.3281 22.6443ZM24.6006 17.7776H22.7779C22.6535 17.7776 22.5475 17.8679 22.528 17.9904L21.791 22.6443C21.7763 22.7362 21.8477 22.819 21.9408 22.819H22.876C22.9629 22.819 23.0373 22.7558 23.0508 22.6699L23.26 21.3507C23.2792 21.2277 23.3855 21.1376 23.5099 21.1376H24.0865C25.2871 21.1376 25.9798 20.5591 26.1609 19.4126C26.2427 18.9111 26.1641 18.517 25.9284 18.2409C25.6695 17.938 25.2105 17.7776 24.6006 17.7776ZM24.8108 19.4774C24.7114 20.1286 24.2118 20.1286 23.7284 20.1286H23.4537L23.6469 18.9123C23.6584 18.8389 23.7217 18.7847 23.7966 18.7847H23.9226C24.2515 18.7847 24.5622 18.7847 24.7225 18.9715C24.8182 19.083 24.8473 19.2486 24.8108 19.4774ZM30.0474 19.4565H29.1753C29.1003 19.4565 29.0367 19.5106 29.0255 19.5842L28.9869 19.8272L28.9256 19.7392C28.7367 19.4661 28.3157 19.3748 27.8952 19.3748C26.9309 19.3748 26.1075 20.1022 25.9471 21.1226C25.864 21.6315 25.982 22.1182 26.2719 22.4577C26.5384 22.7697 26.9184 22.8998 27.3711 22.8998C28.148 22.8998 28.5789 22.4021 28.5789 22.4021L28.54 22.6437C28.5254 22.7361 28.5968 22.8188 28.6903 22.8188H29.4761C29.6005 22.8188 29.7065 22.7286 29.726 22.6058L30.1979 19.6311C30.2123 19.5396 30.1409 19.4565 30.0474 19.4565ZM28.831 21.148C28.7473 21.6445 28.3511 21.9778 27.8464 21.9778C27.5935 21.9778 27.3905 21.8969 27.2605 21.7435C27.1315 21.5912 27.083 21.3744 27.1236 21.1329C27.2026 20.6406 27.6045 20.2965 28.1014 20.2965C28.3493 20.2965 28.5506 20.3784 28.6834 20.5331C28.8169 20.6895 28.8696 20.9076 28.831 21.148Z" fill="#179BD7"/>
<path d="M18.3376 16.112L18.5617 14.6948L18.0626 14.6832H15.6797L17.3357 4.22542C17.3408 4.19384 17.3575 4.16441 17.382 4.14351C17.4064 4.1226 17.4377 4.11108 17.4703 4.11108H21.4883C22.8222 4.11108 23.7427 4.38754 24.2234 4.93318C24.4487 5.18916 24.5922 5.45665 24.6616 5.75102C24.7344 6.0599 24.7357 6.42892 24.6646 6.87901L24.6594 6.91186V7.20025L24.8848 7.3274C25.0746 7.42764 25.2252 7.54241 25.3409 7.67381C25.5338 7.89266 25.6584 8.17082 25.7111 8.5006C25.7655 8.83977 25.7475 9.24335 25.6584 9.70026C25.5556 10.2259 25.3894 10.6836 25.165 11.0582C24.9584 11.4033 24.6954 11.6895 24.3832 11.9115C24.085 12.1222 23.7307 12.2822 23.3302 12.3846C22.9421 12.4852 22.4996 12.5361 22.0143 12.5361H21.7016C21.478 12.5361 21.2608 12.6163 21.0903 12.7601C20.9194 12.9068 20.8062 13.1072 20.7716 13.3266L20.748 13.4542L20.3522 15.9519L20.3342 16.0437C20.3295 16.0728 20.3214 16.0873 20.3094 16.0971C20.2987 16.1059 20.2833 16.112 20.2682 16.112H18.3376Z" fill="#253B80"/>
<path d="M25.1049 6.94922C25.0929 7.02558 25.0792 7.10365 25.0638 7.18385C24.5338 9.89334 22.7211 10.8294 20.4057 10.8294H19.2269C18.9438 10.8294 18.7052 11.0341 18.661 11.3123L18.0574 15.1246L17.8865 16.2052C17.8578 16.3878 17.9992 16.5525 18.1842 16.5525H20.2751C20.5227 16.5525 20.733 16.3733 20.772 16.1302L20.7925 16.0243L21.1863 13.5362L21.2115 13.3998C21.25 13.1558 21.4608 12.9766 21.7084 12.9766H22.0211C24.0468 12.9766 25.6327 12.1575 26.0962 9.78711C26.2898 8.79692 26.1895 7.97013 25.6772 7.38864C25.5222 7.21329 25.3298 7.06781 25.1049 6.94922Z" fill="#179BD7"/>
<path d="M24.5458 6.72848C24.4649 6.70501 24.3813 6.68368 24.2956 6.66449C24.2096 6.64572 24.1213 6.62908 24.0305 6.61458C23.7126 6.56338 23.3644 6.53906 22.9913 6.53906H19.842C19.7644 6.53906 19.6908 6.55655 19.6248 6.58812C19.4796 6.65766 19.3717 6.79461 19.3455 6.96227L18.6755 11.1884L18.6562 11.3117C18.7004 11.0335 18.939 10.8287 19.2221 10.8287H20.4009C22.7163 10.8287 24.5292 9.89232 25.059 7.18326C25.0748 7.10306 25.0881 7.02499 25.1001 6.94862C24.9661 6.8778 24.8208 6.81722 24.6645 6.76559C24.626 6.7528 24.5862 6.74043 24.5458 6.72848Z" fill="#222D65"/>
<path d="M19.3448 6.96035C19.3709 6.79268 19.479 6.65574 19.6241 6.58662C19.6906 6.55505 19.7638 6.53756 19.8412 6.53756H22.9907C23.3638 6.53756 23.712 6.56188 24.0298 6.61307C24.1207 6.62758 24.209 6.64422 24.295 6.66298C24.3807 6.68219 24.4642 6.70352 24.5452 6.72698C24.5854 6.73893 24.6252 6.75129 24.6642 6.76367C24.8206 6.81529 24.9658 6.8763 25.0999 6.94669C25.2576 5.94541 25.0986 5.26367 24.5551 4.64634C23.9558 3.96674 22.8741 3.67578 21.4901 3.67578H17.472C17.1892 3.67578 16.9482 3.88055 16.9044 4.15914L15.2309 14.7244C15.1978 14.9335 15.3597 15.1221 15.5713 15.1221H18.052L18.6749 11.1865L19.3448 6.96035Z" fill="#253B80"/>
</svg>
