<svg width="41" height="28" viewBox="0 0 41 28" fill="none" xmlns="http://www.w3.org/2000/svg">
<rect width="41" height="28" rx="4.5" fill="#5A31F4"/>
<path d="M23.0843 12.9035C23.0843 14.7003 21.8195 15.9829 20.052 15.9829H18.3867C18.3683 15.9829 18.3501 15.9865 18.3332 15.9936C18.3162 16.0006 18.3008 16.0109 18.2878 16.0239C18.2748 16.0368 18.2646 16.0522 18.2576 16.0692C18.2506 16.0861 18.2471 16.1043 18.2472 16.1226V18.4841C18.2472 18.521 18.2325 18.5564 18.2063 18.5826C18.1802 18.6088 18.1447 18.6236 18.1076 18.6238H16.9423C16.9146 18.6236 16.8876 18.6154 16.8646 18.6C16.8416 18.5846 16.8236 18.5629 16.8129 18.5374C16.8059 18.5207 16.8022 18.5029 16.8021 18.4848V9.96304C16.802 9.94473 16.8056 9.92658 16.8125 9.90964C16.8195 9.8927 16.8298 9.8773 16.8427 9.86432C16.8557 9.85134 16.8711 9.84105 16.8881 9.83402C16.9051 9.82699 16.9233 9.82337 16.9417 9.82337H20.0594C21.8195 9.82135 23.0843 11.104 23.0843 12.9035ZM21.6312 12.9035C21.6312 11.8705 20.9239 11.1155 19.9646 11.1155H18.3867C18.3683 11.1155 18.3501 11.1191 18.3332 11.1261C18.3162 11.1331 18.3008 11.1434 18.2878 11.1564C18.2748 11.1694 18.2646 11.1848 18.2576 11.2017C18.2506 11.2187 18.2471 11.2368 18.2472 11.2551V14.5437C18.2472 14.5806 18.2619 14.6159 18.288 14.642C18.3142 14.6681 18.3497 14.6827 18.3867 14.6827H19.9646C20.9239 14.6895 21.6312 13.9338 21.6312 12.9035ZM23.4299 16.9889C23.4178 16.7133 23.475 16.4391 23.5964 16.1912C23.7178 15.9433 23.8995 15.7295 24.1249 15.5693C24.5795 15.2286 25.2902 15.0525 26.3335 15.016L27.4446 14.9769V14.6503C27.4446 13.9959 27.0042 13.7192 26.2969 13.7192C25.5896 13.7192 25.1412 13.9689 25.0382 14.3771C25.0298 14.4058 25.0121 14.4309 24.9878 14.4485C24.9635 14.4661 24.934 14.4751 24.904 14.4742H23.8065C23.7863 14.4748 23.7662 14.4709 23.7477 14.4628C23.7292 14.4548 23.7127 14.4427 23.6994 14.4276C23.686 14.4125 23.6762 14.3946 23.6706 14.3752C23.665 14.3559 23.6638 14.3356 23.667 14.3157C23.8296 13.3481 24.6378 12.6127 26.3471 12.6127C28.1654 12.6127 28.8219 13.4561 28.8219 15.066V18.4841C28.8215 18.5214 28.8064 18.557 28.7797 18.5832C28.753 18.6094 28.717 18.6239 28.6796 18.6238H27.5733C27.5363 18.6237 27.5008 18.6091 27.4744 18.5833C27.4614 18.5703 27.4512 18.555 27.4442 18.5381C27.4372 18.5212 27.4337 18.503 27.4337 18.4848V18.2291C27.4341 18.2079 27.4281 18.1872 27.4164 18.1695C27.4047 18.1519 27.388 18.1382 27.3683 18.1302C27.3486 18.1222 27.327 18.1204 27.3063 18.1249C27.2856 18.1294 27.2667 18.1401 27.2522 18.1555C26.9202 18.5151 26.3843 18.7749 25.526 18.7749C24.2631 18.7749 23.4299 18.1204 23.4299 16.9889ZM27.4446 16.2481V15.9829L26.0056 16.0585C25.2475 16.0969 24.8065 16.4107 24.8065 16.939C24.8065 17.4167 25.2109 17.6812 25.9175 17.6812C26.8775 17.6812 27.4446 17.165 27.4446 16.2481ZM29.9329 21.2066V20.2161C29.9332 20.1953 29.938 20.1749 29.947 20.1561C29.956 20.1374 29.9691 20.1209 29.9853 20.1078C30.0014 20.0946 30.0203 20.0852 30.0405 20.0801C30.0607 20.0751 30.0818 20.0745 30.1023 20.0785C30.2717 20.1102 30.4444 20.1264 30.6172 20.127C30.9142 20.1414 31.2074 20.0562 31.45 19.8849C31.6926 19.7137 31.8705 19.4663 31.9552 19.1824L32.027 18.9544C32.0374 18.9237 32.0374 18.8906 32.027 18.8599L29.7216 12.9629C29.7132 12.9415 29.7102 12.9184 29.7128 12.8956C29.7154 12.8728 29.7235 12.851 29.7365 12.832C29.7494 12.8131 29.7667 12.7975 29.787 12.7867C29.8073 12.7758 29.83 12.7701 29.853 12.7699H30.9708C30.9994 12.7702 31.0272 12.779 31.0506 12.7953C31.0741 12.8115 31.0921 12.8344 31.1023 12.861L32.6679 17.02C32.6777 17.0476 32.6959 17.0715 32.7199 17.0884C32.7439 17.1053 32.7726 17.1144 32.802 17.1144C32.8315 17.1144 32.8602 17.1053 32.8842 17.0884C32.9082 17.0715 32.9264 17.0476 32.9362 17.02L34.2959 12.8724C34.3053 12.8441 34.3235 12.8194 34.3478 12.802C34.3721 12.7845 34.4014 12.7752 34.4314 12.7753H35.5878C35.611 12.7754 35.6338 12.7811 35.6543 12.792C35.6747 12.8028 35.6923 12.8183 35.7054 12.8374C35.7185 12.8564 35.7268 12.8783 35.7295 12.9012C35.7323 12.9241 35.7295 12.9473 35.7213 12.9689L33.2553 19.5178C32.6876 21.0399 31.714 21.4293 30.6423 21.4293C30.439 21.4347 30.2358 21.4104 30.0393 21.3571C30.0066 21.3485 29.9781 21.3286 29.9586 21.3011C29.9391 21.2736 29.9301 21.2401 29.9329 21.2066ZM9.31397 9.33218C7.84526 9.32176 6.42839 9.87229 5.35481 10.8705C5.3089 10.9124 5.28027 10.9698 5.27451 11.0315C5.26875 11.0933 5.28627 11.1549 5.32364 11.2045L5.98825 12.1087C6.00979 12.1388 6.0377 12.1638 6.07 12.182C6.10231 12.2002 6.13823 12.2111 6.17523 12.214C6.21223 12.2169 6.24943 12.2117 6.28419 12.1988C6.31895 12.1858 6.35044 12.1654 6.37644 12.139C6.76247 11.7547 7.22155 11.4508 7.72686 11.2451C8.23216 11.0395 8.77356 10.9362 9.31939 10.9414C11.5984 10.9414 12.7887 12.6498 12.7887 14.3366C12.7887 16.1705 11.5381 17.4605 9.74078 17.4862C8.35196 17.4862 7.30526 16.5692 7.30526 15.3581C7.30671 15.0521 7.37631 14.7503 7.50904 14.4744C7.64177 14.1984 7.83434 13.9553 8.07284 13.7624C8.12326 13.7205 8.15513 13.6605 8.16159 13.5954C8.16805 13.5302 8.14859 13.4652 8.10739 13.4142L7.40891 12.5358C7.38779 12.5092 7.36154 12.4871 7.3317 12.4708C7.30187 12.4545 7.26906 12.4443 7.23521 12.4409C7.20136 12.4374 7.16716 12.4407 7.13463 12.4507C7.10209 12.4606 7.07189 12.4769 7.04579 12.4986C6.61682 12.8428 6.27065 13.2783 6.03268 13.7731C5.7947 14.2679 5.67096 14.8095 5.67051 15.3581C5.67051 17.443 7.44956 19.0785 9.72859 19.092H9.75907C12.4649 19.0569 14.4215 17.0611 14.4215 14.3332C14.4215 11.911 12.6302 9.33218 9.31465 9.33218H9.31397Z" fill="white"/>
</svg>
