<svg width="41" height="28" viewBox="0 0 41 28" fill="none" xmlns="http://www.w3.org/2000/svg">
<rect x="0.375" y="0.375" width="40.25" height="27.25" rx="4.125" fill="white" stroke="#DDDDDD" stroke-width="0.75"/>
<path fill-rule="evenodd" clip-rule="evenodd" d="M12.4487 18.9664H9.96493L8.10238 11.8895C8.01398 11.564 7.82627 11.2762 7.55016 11.1406C6.86109 10.7997 6.10178 10.5284 5.27344 10.3916V10.1191H9.27465C9.82688 10.1191 10.241 10.5284 10.3101 11.0037L11.2765 16.1085L13.7591 10.1191H16.1738L12.4487 18.9664ZM17.5567 18.9644H15.2109L17.1425 10.1172H19.4883L17.5567 18.9644ZM22.5193 12.5691C22.5883 12.0926 23.0025 11.8201 23.4857 11.8201C24.245 11.7517 25.0721 11.8885 25.7624 12.2282L26.1766 10.3233C25.4863 10.0509 24.727 9.91406 24.0379 9.91406C21.7612 9.91406 20.1045 11.1395 20.1045 12.8403C20.1045 14.1342 21.278 14.8136 22.1063 15.2229C23.0025 15.631 23.3476 15.9034 23.2786 16.3115C23.2786 16.9237 22.5883 17.1961 21.8993 17.1961C21.0709 17.1961 20.2426 16.9921 19.4845 16.6512L19.0703 18.5573C19.8987 18.8969 20.7948 19.0338 21.6231 19.0338C24.176 19.101 25.7624 17.8767 25.7624 16.0391C25.7624 13.7249 22.5193 13.5893 22.5193 12.5691ZM33.9739 18.9644L32.1113 10.1172H30.1107C29.6965 10.1172 29.2824 10.3896 29.1443 10.7977L25.6953 18.9644H28.1101L28.5921 17.6717H31.5591L31.8352 18.9644H33.9739ZM30.4534 12.5L31.1425 15.8344H29.2109L30.4534 12.5Z" fill="#172B85"/>
</svg>
