<svg width="1312" height="268" viewBox="0 0 1312 268" fill="none" xmlns="http://www.w3.org/2000/svg">
<g opacity="0.6">
<path d="M0 169.263C0 150.227 3.96522 133.369 11.8957 118.691C20.0594 104.012 31.022 92.659 44.7837 84.6316C58.7786 76.3748 74.173 72.2465 90.9669 72.2465C106.128 72.2465 119.307 75.2281 130.502 81.1913C141.932 86.9251 151.028 94.1498 157.793 102.865V75.3428H198.028V264.904H157.793V236.693C151.028 245.638 141.815 253.092 130.153 259.055C118.49 265.018 105.195 268 90.2671 268C73.7065 268 58.5453 263.872 44.7837 255.615C31.022 247.129 20.0594 235.432 11.8957 220.524C3.96522 205.386 0 188.3 0 169.263ZM157.793 169.951C157.793 156.878 154.994 145.525 149.396 135.892C144.031 126.259 136.917 118.92 128.053 113.874C119.19 108.828 109.627 106.306 99.3638 106.306C89.1009 106.306 79.5377 108.828 70.6742 113.874C61.8108 118.691 54.5801 125.915 48.9822 135.548C43.6174 144.952 40.9351 156.19 40.9351 169.263C40.9351 182.336 43.6174 193.804 48.9822 203.666C54.5801 213.528 61.8108 221.097 70.6742 226.372C79.7709 231.418 89.3341 233.941 99.3638 233.941C109.627 233.941 119.19 231.418 128.053 226.372C136.917 221.326 144.031 213.987 149.396 204.354C154.994 194.492 157.793 183.024 157.793 169.951Z" fill="#FFF5E9"/>
<path d="M483.781 72.2465C498.942 72.2465 512.47 75.3427 524.366 81.5353C536.495 87.7278 545.941 96.902 552.706 109.058C559.703 121.214 563.202 135.892 563.202 153.094V264.904H523.666V158.942C523.666 141.97 519.351 129.012 510.721 120.067C502.091 110.893 490.312 106.306 475.384 106.306C460.456 106.306 448.56 110.893 439.697 120.067C431.067 129.012 426.752 141.97 426.752 158.942V264.904H387.216V158.942C387.216 141.97 382.901 129.012 374.271 120.067C365.64 110.893 353.861 106.306 338.934 106.306C324.006 106.306 312.11 110.893 303.247 120.067C294.616 129.012 290.301 141.97 290.301 158.942V264.904H250.416V75.3428H290.301V97.0167C296.832 89.2187 305.113 83.1408 315.142 78.7831C325.172 74.4253 335.901 72.2465 347.33 72.2465C362.725 72.2465 376.487 75.4574 388.615 81.8793C400.744 88.3012 410.074 97.5901 416.605 109.746C422.436 98.2781 431.533 89.2186 443.895 82.5674C456.257 75.6868 469.553 72.2465 483.781 72.2465Z" fill="#FFF5E9"/>
<path d="M790.641 165.479C790.641 172.589 790.174 179.011 789.241 184.745H641.945C643.111 199.882 648.826 212.038 659.089 221.212C669.352 230.386 681.947 234.973 696.875 234.973C718.334 234.973 733.495 226.143 742.358 208.483H785.393C779.561 225.914 768.949 240.248 753.554 251.487C738.393 262.495 719.5 268 696.875 268C678.448 268 661.888 263.986 647.193 255.959C632.732 247.702 621.302 236.234 612.906 221.556C604.742 206.648 600.66 189.446 600.66 169.951C600.66 150.456 604.625 133.369 612.556 118.691C620.719 103.783 632.032 92.3149 646.493 84.2875C661.188 76.2602 677.982 72.2465 696.875 72.2465C715.068 72.2465 731.279 76.1455 745.507 83.9435C759.735 91.7415 770.815 102.751 778.745 116.97C786.676 130.961 790.641 147.13 790.641 165.479ZM749.006 153.094C748.773 138.644 743.525 127.062 733.262 118.347C722.999 109.631 710.287 105.273 695.126 105.273C681.364 105.273 669.585 109.631 659.788 118.347C649.992 126.833 644.161 138.415 642.295 153.094H749.006Z" fill="#FFF5E9"/>
<path d="M845.986 267.312C838.755 267.312 832.691 264.904 827.793 260.087C822.895 255.271 820.446 249.308 820.446 242.198C820.446 235.088 822.895 229.124 827.793 224.308C832.691 219.492 838.755 217.083 845.986 217.083C852.984 217.083 858.932 219.492 863.83 224.308C868.728 229.124 871.177 235.088 871.177 242.198C871.177 249.308 868.728 255.271 863.83 260.087C858.932 264.904 852.984 267.312 845.986 267.312Z" fill="#FFF5E9"/>
<path d="M952.071 212.267C951.605 215.478 951.372 217.542 951.372 218.46C951.372 223.276 952.888 226.831 955.92 229.125C958.952 231.189 963.967 232.221 970.965 232.221H995.456L989.508 264.904H958.019C942.625 264.904 930.846 261.922 922.682 255.959C914.518 249.766 910.437 240.019 910.437 226.716C910.437 221.671 910.903 216.854 911.836 212.267L930.729 107.338H907.987L913.585 75.3428H936.677L945.074 28.2105H985.309L976.912 75.3428H1023.45L1017.85 107.338H970.965L952.071 212.267Z" fill="#FFF5E9"/>
<path d="M1085.05 50.2285C1078.75 50.2285 1073.62 48.279 1069.65 44.38C1065.69 40.481 1063.71 35.5498 1063.71 29.5867C1063.71 21.5593 1066.74 14.6786 1072.8 8.94481C1079.1 2.9816 1086.21 0 1094.14 0C1100.44 0 1105.46 1.94951 1109.19 5.84853C1113.15 9.74754 1115.14 14.6786 1115.14 20.6418C1115.14 28.6692 1112.1 35.6645 1106.04 41.6277C1099.98 47.3616 1092.98 50.2285 1085.05 50.2285ZM1100.09 75.3428L1066.15 264.904H1026.27L1060.21 75.3428H1100.09Z" fill="#FFF5E9"/>
<path d="M1122.37 169.951C1125.87 150.456 1132.87 133.369 1143.36 118.691C1154.09 103.783 1167.27 92.3149 1182.9 84.2875C1198.76 76.2602 1215.9 72.2465 1234.33 72.2465C1257.65 72.2465 1275.96 77.751 1289.26 88.7599C1302.55 99.5396 1310.13 115.021 1312 135.204H1268.97C1267.1 125.801 1262.78 118.461 1256.02 113.186C1249.26 107.911 1240.04 105.273 1228.38 105.273C1212.05 105.273 1198.06 111.007 1186.4 122.475C1174.73 133.713 1167.04 149.539 1163.3 169.951C1162.14 177.291 1161.55 183.254 1161.55 187.841C1161.55 202.978 1165.4 214.675 1173.1 222.932C1180.8 230.959 1191.53 234.973 1205.29 234.973C1228.38 234.973 1245.41 224.996 1256.37 205.042H1299.4C1290.31 224.308 1277.01 239.675 1259.52 251.142C1242.26 262.381 1222.2 268 1199.34 268C1175.08 268 1155.84 261.234 1141.61 247.702C1127.38 233.941 1120.27 215.363 1120.27 191.969C1120.27 184.859 1120.97 177.52 1122.37 169.951Z" fill="#FFF5E9"/>
</g>
</svg>
