<svg width="98" height="20" viewBox="0 0 98 20" fill="none" xmlns="http://www.w3.org/2000/svg">
<path d="M0 12.6316C0 11.211 0.296183 9.95293 0.888548 8.85751C1.49834 7.76209 2.31719 6.91485 3.34512 6.31579C4.39047 5.69962 5.54036 5.39153 6.79478 5.39153C7.92724 5.39153 8.91162 5.61404 9.7479 6.05905C10.6016 6.48695 11.2811 7.0261 11.7863 7.67651V5.62259H14.7917V19.7689H11.7863V17.6637C11.2811 18.3312 10.5929 18.8875 9.72176 19.3325C8.85064 19.7775 7.85755 20 6.74251 20C5.50551 20 4.37305 19.6919 3.34512 19.0757C2.31719 18.4424 1.49834 17.5695 0.888548 16.457C0.296183 15.3273 0 14.0522 0 12.6316ZM11.7863 12.6829C11.7863 11.7073 11.5773 10.8601 11.1591 10.1412C10.7584 9.42234 10.227 8.87463 9.56496 8.49807C8.9029 8.12152 8.18858 7.93325 7.42199 7.93325C6.6554 7.93325 5.94108 8.12152 5.27902 8.49807C4.61697 8.85751 4.07687 9.39666 3.65873 10.1155C3.25801 10.8173 3.05765 11.656 3.05765 12.6316C3.05765 13.6072 3.25801 14.463 3.65873 15.199C4.07687 15.935 4.61697 16.4998 5.27902 16.8935C5.9585 17.27 6.67282 17.4583 7.42199 17.4583C8.18858 17.4583 8.9029 17.27 9.56496 16.8935C10.227 16.5169 10.7584 15.9692 11.1591 15.2503C11.5773 14.5143 11.7863 13.6585 11.7863 12.6829Z" fill="black"/>
<path d="M36.1361 5.39153C37.2685 5.39153 38.279 5.62259 39.1676 6.08472C40.0736 6.54685 40.7792 7.23149 41.2844 8.13864C41.8071 9.04578 42.0684 10.1412 42.0684 11.4249V19.7689H39.1153V11.8614C39.1153 10.5948 38.793 9.62773 38.1484 8.96021C37.5037 8.27557 36.6239 7.93325 35.5089 7.93325C34.3938 7.93325 33.5053 8.27557 32.8432 8.96021C32.1986 9.62773 31.8763 10.5948 31.8763 11.8614V19.7689H28.9231V11.8614C28.9231 10.5948 28.6008 9.62773 27.9562 8.96021C27.3116 8.27557 26.4317 7.93325 25.3167 7.93325C24.2016 7.93325 23.3131 8.27557 22.651 8.96021C22.0064 9.62773 21.6841 10.5948 21.6841 11.8614V19.7689H18.7048V5.62259H21.6841V7.24005C22.1719 6.65811 22.7904 6.20454 23.5396 5.87933C24.2888 5.55413 25.0902 5.39153 25.9439 5.39153C27.0938 5.39153 28.1217 5.63115 29.0277 6.1104C29.9336 6.58964 30.6305 7.28284 31.1184 8.18999C31.5539 7.33419 32.2334 6.65811 33.1568 6.16175C34.0802 5.64827 35.0733 5.39153 36.1361 5.39153Z" fill="black"/>
<path d="M59.057 12.3492C59.057 12.8798 59.0222 13.359 58.9525 13.7869H47.9502C48.0373 14.9166 48.4641 15.8237 49.2307 16.5083C49.9973 17.193 50.9381 17.5353 52.0532 17.5353C53.656 17.5353 54.7885 16.8763 55.4506 15.5584H58.665C58.2294 16.8592 57.4367 17.929 56.2868 18.7677C55.1544 19.5892 53.7431 20 52.0532 20C50.6768 20 49.4398 19.7005 48.3422 19.1014C47.262 18.4852 46.4083 17.6294 45.7811 16.534C45.1713 15.4215 44.8664 14.1378 44.8664 12.6829C44.8664 11.2281 45.1626 9.95293 45.7549 8.85751C46.3647 7.74497 47.2097 6.88917 48.2899 6.29011C49.3875 5.69106 50.6419 5.39153 52.0532 5.39153C53.4121 5.39153 54.623 5.6825 55.6858 6.26444C56.7485 6.84638 57.5761 7.66795 58.1685 8.72914C58.7608 9.77321 59.057 10.9799 59.057 12.3492ZM55.9471 11.4249C55.9297 10.3466 55.5377 9.48224 54.7711 8.83184C54.0045 8.18143 53.055 7.85623 51.9225 7.85623C50.8946 7.85623 50.0147 8.18143 49.283 8.83184C48.5512 9.46513 48.1157 10.3295 47.9763 11.4249H55.9471Z" fill="black"/>
<path d="M63.191 19.9487C62.6509 19.9487 62.198 19.7689 61.8321 19.4095C61.4662 19.0501 61.2833 18.605 61.2833 18.0745C61.2833 17.5439 61.4662 17.0988 61.8321 16.7394C62.198 16.38 62.6509 16.2003 63.191 16.2003C63.7137 16.2003 64.158 16.38 64.5239 16.7394C64.8897 17.0988 65.0727 17.5439 65.0727 18.0745C65.0727 18.605 64.8897 19.0501 64.5239 19.4095C64.158 19.7689 63.7137 19.9487 63.191 19.9487Z" fill="black"/>
<path d="M71.1151 15.8408C71.0802 16.0804 71.0628 16.2345 71.0628 16.303C71.0628 16.6624 71.1761 16.9277 71.4026 17.0988C71.6291 17.2529 72.0036 17.3299 72.5263 17.3299H74.3557L73.9114 19.7689H71.5594C70.4095 19.7689 69.5296 19.5464 68.9199 19.1014C68.3101 18.6393 68.0052 17.9119 68.0052 16.9191C68.0052 16.5426 68.04 16.1831 68.1097 15.8408L69.5209 8.01027H67.8222L68.2404 5.62259H69.9652L70.5924 2.10526H73.5978L72.9706 5.62259H76.4464L76.0282 8.01027H72.5263L71.1151 15.8408Z" fill="black"/>
<path d="M81.0478 3.7484C80.5773 3.7484 80.1941 3.60291 79.8979 3.31194C79.6017 3.02097 79.4536 2.65297 79.4536 2.20796C79.4536 1.6089 79.6801 1.09542 80.1331 0.667523C80.6035 0.222508 81.1349 0 81.7272 0C82.1976 0 82.5722 0.145486 82.851 0.436457C83.1472 0.727428 83.2953 1.09542 83.2953 1.54044C83.2953 2.1395 83.0688 2.66153 82.6158 3.10655C82.1628 3.53445 81.6401 3.7484 81.0478 3.7484ZM82.1715 5.62259L79.6365 19.7689H76.6573L79.1923 5.62259H82.1715Z" fill="black"/>
<path d="M83.8355 12.6829C84.0968 11.2281 84.6195 9.95293 85.4035 8.85751C86.205 7.74497 87.1893 6.88917 88.3566 6.29011C89.5414 5.69106 90.8219 5.39153 92.1983 5.39153C93.9406 5.39153 95.3082 5.80231 96.3013 6.62388C97.2944 7.42833 97.8606 8.58365 98 10.0899H94.7855C94.6462 9.3881 94.3238 8.84039 93.8186 8.44673C93.3133 8.05306 92.6252 7.85623 91.754 7.85623C90.5344 7.85623 89.4891 8.28413 88.618 9.13992C87.7468 9.97861 87.1719 11.1596 86.8931 12.6829C86.806 13.2306 86.7625 13.6757 86.7625 14.018C86.7625 15.1476 87.0499 16.0205 87.6249 16.6367C88.1998 17.2358 89.0013 17.5353 90.0292 17.5353C91.754 17.5353 93.0259 16.7908 93.8447 15.3017H97.0592C96.3797 16.7394 95.3866 17.8862 94.0799 18.742C92.7907 19.5807 91.2923 20 89.5849 20C87.773 20 86.3356 19.4951 85.2729 18.4852C84.2101 17.4583 83.6787 16.0719 83.6787 14.3261C83.6787 13.7955 83.731 13.2478 83.8355 12.6829Z" fill="black"/>
</svg>
